<?xml version="1.0" standalone="no"?>
<!DOCTYPE svg PUBLIC "-//W3C//DTD SVG 20010904//EN"
 "http://www.w3.org/TR/2001/REC-SVG-20010904/DTD/svg10.dtd">
<svg version="1.0" xmlns="http://www.w3.org/2000/svg"
 width="640.000000pt" height="640.000000pt" viewBox="0 0 640.000000 640.000000"
 preserveAspectRatio="xMidYMid meet">

<g transform="translate(0.000000,640.000000) scale(0.100000,-0.100000)"
fill="#000000" stroke="none">
<path d="M0 3200 l0 -3200 1293 1 c710 0 1279 4 1262 9 -16 4 -73 18 -125 30
-317 74 -656 216 -940 393 -144 88 -143 88 -135 126 5 22 19 39 45 56 44 28
85 78 101 122 8 24 7 39 -5 67 -14 34 -14 39 9 89 32 67 31 75 -5 112 l-31 32
21 48 c13 30 20 65 18 89 -3 36 -8 44 -40 61 -36 19 -37 20 -37 83 0 83 -10
94 -80 90 -31 -1 -62 1 -70 6 -21 13 -8 63 38 142 61 105 55 137 -27 150 -23
3 -49 12 -58 19 -16 11 -15 15 0 63 21 62 91 158 143 197 62 46 103 88 103
106 0 9 -20 41 -45 71 -25 30 -45 64 -45 74 1 45 83 107 255 194 l110 56 35
70 c19 39 45 84 57 100 l21 29 66 -17 c36 -10 84 -26 106 -37 23 -11 48 -17
56 -14 8 3 26 29 41 59 14 29 38 65 54 80 26 25 30 26 61 14 18 -8 49 -24 68
-37 53 -36 74 -30 118 30 57 76 158 167 187 167 19 0 35 -16 76 -80 78 -122
94 -126 182 -37 63 63 132 110 179 122 33 8 40 -3 67 -114 11 -46 24 -88 30
-94 14 -14 41 -1 41 20 0 19 55 43 204 89 142 44 180 33 191 -53 4 -32 14 -66
23 -77 22 -23 77 -52 122 -61 57 -12 110 -36 120 -55 6 -11 3 -38 -10 -80 -14
-47 -16 -67 -8 -77 9 -11 15 -11 35 3 36 23 222 16 276 -10 20 -10 37 -22 37
-25 0 -4 -23 -45 -50 -91 -28 -46 -50 -92 -48 -104 2 -11 29 -40 62 -65 55
-42 96 -92 96 -118 0 -7 -20 -35 -45 -63 -25 -28 -45 -55 -45 -60 0 -5 27 -32
59 -60 62 -54 111 -118 111 -145 0 -9 -28 -43 -61 -75 -60 -56 -61 -59 -54
-96 6 -37 6 -38 -12 -23 -32 29 -76 46 -193 75 -98 24 -136 29 -260 30 -153 1
-180 -5 -205 -43 -19 -29 -38 -29 -119 1 -53 19 -69 21 -88 12 -21 -11 -23
-19 -24 -86 -1 -73 -2 -76 -38 -113 -27 -26 -36 -42 -31 -55 25 -66 28 -100
12 -126 -21 -32 -22 -70 -1 -105 15 -25 15 -31 0 -75 -15 -44 -15 -50 0 -83
20 -40 61 -69 156 -110 l66 -28 7 -85 c8 -96 29 -200 50 -240 19 -37 61 -55
178 -75 85 -15 114 -16 217 -6 65 6 146 11 179 11 52 0 61 -3 61 -18 0 -10
-10 -28 -22 -40 -23 -20 -54 -30 -178 -53 -36 -6 -74 -17 -85 -24 -11 -7 -36
-48 -55 -91 -44 -101 -69 -144 -84 -144 -7 0 -40 9 -73 21 -79 26 -109 22
-141 -18 l-25 -33 1447 0 1446 0 0 3200 0 3200 -3200 0 -3200 0 0 -3200z
m4398 2930 c24 -6 62 -19 85 -29 23 -11 58 -25 77 -31 19 -7 71 -25 115 -40
44 -16 105 -38 134 -49 59 -22 195 -102 276 -161 187 -136 172 -114 174 -255
1 -45 6 -119 12 -165 6 -47 12 -125 15 -175 7 -120 10 -135 34 -135 30 0 44
38 44 121 l1 76 95 7 c139 9 240 7 240 -4 0 -11 -7 -15 -170 -106 -69 -39
-154 -82 -189 -97 -61 -27 -65 -27 -90 -11 -53 35 -161 125 -229 192 -39 39
-86 81 -104 95 -18 14 -30 27 -28 29 3 2 44 36 92 76 48 40 123 95 165 121 53
33 78 54 78 67 0 31 -57 30 -113 -2 -39 -22 -153 -105 -172 -124 -3 -3 -39
-34 -80 -70 -41 -36 -117 -107 -168 -158 l-93 -93 -87 78 c-47 43 -96 86 -107
96 -40 37 -242 166 -313 201 -40 21 -130 52 -200 72 -70 19 -130 35 -134 37
-11 3 78 97 140 147 69 56 100 78 202 146 47 32 103 70 125 84 43 29 116 70
125 70 3 0 24 -5 48 -10z m-1512 -77 c-6 -27 -34 -105 -61 -168 -6 -16 -25
-60 -40 -97 l-28 -67 -76 -17 c-42 -9 -109 -27 -150 -40 -41 -13 -78 -21 -82
-18 -5 3 -38 67 -74 142 -37 75 -70 145 -76 155 -17 31 19 15 96 -43 66 -49
192 -120 227 -127 43 -9 48 21 9 61 l-33 34 87 73 c70 59 185 138 204 139 2 0
0 -12 -3 -27z m-692 -58 c25 -11 36 -22 36 -36 0 -12 7 -37 16 -57 43 -95 89
-193 120 -255 19 -38 34 -70 34 -71 0 -2 -21 -11 -47 -21 -107 -40 -235 -107
-349 -183 -122 -81 -153 -106 -299 -242 -175 -162 -212 -199 -270 -263 -49
-55 -61 -64 -68 -51 -20 35 -38 219 -43 429 -5 213 -5 222 16 247 19 24 140
126 258 216 117 90 493 296 548 301 6 1 28 -6 48 -14z m1433 -291 c19 -4 33
-13 36 -25 6 -23 22 -30 167 -69 158 -44 271 -84 321 -115 189 -120 421 -334
532 -492 73 -104 174 -304 247 -490 88 -221 92 -526 11 -844 -66 -258 -81
-299 -172 -484 -63 -128 -65 -131 -178 -276 -94 -119 -135 -163 -189 -201
l-43 -30 8 159 c4 87 7 172 7 188 -2 51 -39 357 -64 515 -5 36 -15 97 -20 135
-6 39 -28 138 -49 222 -41 166 -42 163 24 163 26 0 39 7 55 30 l21 29 -23 32
c-30 41 -110 99 -136 99 -55 0 -72 35 -22 44 17 3 44 9 61 12 51 10 27 29 -37
29 -32 0 -64 3 -70 7 -6 4 -23 40 -39 80 -16 40 -45 106 -65 146 -33 63 -35
74 -21 81 17 8 85 28 206 60 44 11 70 23 70 32 0 10 -10 13 -35 11 -34 -2
-187 -36 -244 -53 -37 -11 -44 -5 -97 84 -23 40 -52 86 -65 102 -12 17 -25 47
-29 68 -4 21 -13 37 -21 37 -18 0 -18 3 -19 -194 l0 -169 -60 -22 c-33 -13
-64 -21 -69 -18 -14 9 -111 221 -144 318 -34 98 -92 315 -92 345 0 27 -32 120
-41 120 -14 0 -22 -48 -15 -89 4 -25 1 -44 -9 -58 -27 -38 -95 -234 -139 -398
-13 -49 -31 -112 -39 -140 -53 -168 -67 -231 -116 -536 -6 -37 -11 -144 -11
-238 0 -134 -3 -172 -12 -169 -17 6 -122 131 -162 193 -65 101 -107 212 -141
367 -28 136 -26 454 5 618 19 102 70 252 120 356 77 161 66 198 -18 62 -28
-46 -77 -111 -110 -145 -112 -116 -228 -319 -375 -653 -8 -19 -27 -61 -41 -92
-14 -32 -28 -58 -31 -58 -20 0 -172 65 -182 78 -7 9 -13 28 -13 44 0 38 -26
36 -33 -2 -4 -16 -12 -30 -19 -30 -7 0 -62 16 -123 35 -118 37 -140 41 -150
25 -7 -12 73 -50 160 -75 91 -26 99 -32 82 -58 -65 -99 -162 -319 -202 -457
-9 -30 -23 -68 -30 -85 -8 -16 -19 -66 -25 -110 -30 -214 -44 -293 -90 -530
-18 -88 -34 -179 -37 -202 -7 -55 16 -112 72 -178 l44 -51 -19 -80 c-11 -43
-20 -104 -20 -135 0 -65 -6 -72 -96 -116 -81 -40 -161 -94 -202 -136 -44 -46
-51 -94 -23 -165 12 -29 21 -60 21 -68 0 -9 -33 -51 -73 -95 -130 -142 -169
-231 -128 -296 11 -17 36 -39 56 -49 20 -9 39 -23 42 -31 3 -7 -12 -48 -33
-90 -34 -70 -36 -79 -27 -116 11 -39 10 -42 -27 -86 -39 -46 -76 -120 -111
-220 -22 -63 -59 -239 -59 -282 0 -16 -4 -29 -8 -29 -11 0 -222 217 -293 300
-121 142 -284 376 -364 524 -30 55 -35 72 -27 90 10 22 54 84 135 189 128 167
244 331 295 417 56 93 57 94 60 60 1 -19 -1 -71 -6 -115 -5 -44 -6 -84 -1 -89
11 -12 34 74 64 239 53 297 129 685 135 685 3 0 21 -46 39 -102 45 -138 71
-195 138 -302 109 -175 171 -244 238 -266 64 -21 62 -5 -6 61 -104 100 -233
305 -292 464 -105 282 -119 527 -52 925 35 205 59 302 101 404 42 100 133 278
164 321 16 22 39 58 51 80 54 98 143 196 374 414 167 157 352 267 705 420 41
18 85 38 98 44 24 11 30 37 10 37 -30 1 43 29 117 45 161 34 212 43 330 55 66
6 129 13 140 15 31 6 436 -4 472 -11z m1304 -561 c47 -48 112 -119 145 -158
32 -38 62 -72 65 -75 3 -3 45 -57 93 -120 70 -92 109 -160 205 -355 117 -235
159 -338 279 -680 84 -239 143 -431 197 -640 40 -151 92 -254 205 -403 151
-199 240 -340 240 -380 0 -37 -33 -142 -45 -142 -5 0 -30 37 -54 83 -24 45
-86 147 -136 227 -51 80 -98 156 -105 170 -25 50 -62 92 -70 80 -8 -14 1 -51
70 -270 27 -85 61 -193 75 -240 25 -81 63 -191 102 -292 l18 -48 -64 -127
c-148 -300 -345 -581 -570 -816 -98 -102 -257 -247 -271 -247 -5 0 -14 17 -21
38 -49 152 -204 384 -396 594 -29 32 -53 59 -53 61 0 2 23 81 50 176 33 113
48 181 44 198 -4 14 -29 46 -57 72 -28 25 -74 68 -103 94 l-53 49 -36 151
c-50 213 -81 274 -204 410 -34 37 -61 71 -61 75 0 4 28 35 63 67 80 76 257
299 304 383 22 39 48 71 66 81 134 72 275 197 331 294 55 92 71 161 71 297 0
84 -5 136 -14 160 -32 80 -98 140 -155 140 -27 0 -28 2 -23 34 3 18 1 62 -4
97 -4 35 -13 100 -19 144 -14 101 -55 224 -120 359 -27 58 -61 131 -75 161
-30 69 -121 209 -170 264 l-37 41 33 37 c18 21 49 52 68 70 l35 31 36 -28 c19
-16 74 -68 121 -117z m-1424 -467 c7 -6 24 -33 37 -61 23 -43 24 -51 11 -65
-21 -23 -19 -28 11 -32 21 -2 36 -18 66 -68 22 -36 57 -86 79 -112 22 -27 38
-52 34 -57 -3 -5 -20 -12 -38 -16 -91 -17 -157 -39 -157 -51 0 -19 20 -17 118
6 98 24 112 24 112 7 0 -8 -39 -26 -97 -46 -131 -43 -132 -43 -111 -78 9 -15
26 -29 37 -31 27 -4 27 -18 1 -32 -21 -11 -21 -11 2 -35 13 -14 31 -25 42 -25
14 0 17 -5 12 -22 -35 -121 -48 -189 -53 -283 -9 -171 18 -240 125 -325 90
-72 208 -99 287 -66 52 22 118 93 155 166 29 58 33 75 34 150 1 62 -4 94 -17
119 -9 19 -17 40 -17 48 0 16 -29 29 -82 38 -42 7 -65 32 -74 82 -9 48 5 122
27 144 22 22 71 25 88 5 12 -15 59 -196 85 -326 21 -112 67 -459 82 -630 l5
-55 -63 -29 c-169 -78 -459 -182 -562 -202 -35 -6 -36 -5 -36 26 0 44 -16 69
-55 86 -66 27 -162 13 -304 -45 -78 -33 -75 -34 -86 34 -5 26 -19 51 -44 76
-75 76 -130 64 -261 -56 -51 -47 -98 -84 -104 -82 -6 2 -30 32 -54 68 -64 94
-69 99 -118 99 -34 0 -52 -7 -91 -38 -59 -48 -130 -124 -145 -157 -6 -14 -14
-25 -17 -25 -3 0 -33 18 -66 40 -38 25 -72 40 -91 40 -37 0 -78 -30 -99 -71
-19 -36 -34 -36 -121 -3 -100 37 -191 87 -258 142 -66 54 -64 33 -28 237 30
166 41 268 46 400 4 91 11 138 29 195 14 41 28 93 31 115 8 47 25 77 33 58 2
-7 17 -13 31 -13 l27 0 -24 -19 -24 -19 21 -11 c17 -9 20 -18 16 -40 -3 -16
-2 -31 4 -35 5 -3 54 1 108 9 118 18 128 16 113 -22 -5 -15 -19 -79 -30 -142
-22 -126 -19 -178 11 -267 45 -129 110 -199 221 -234 84 -27 149 -22 223 18
99 54 141 148 141 317 0 97 -3 115 -24 155 -35 67 -36 68 -85 60 -51 -8 -92 6
-125 41 -16 18 -21 35 -21 79 0 58 11 80 42 80 22 0 58 38 58 61 0 10 -9 20
-19 24 -10 3 -21 14 -24 24 -6 23 -76 40 -195 48 -69 5 -82 9 -80 22 3 12 22
18 88 23 100 9 130 15 130 27 0 15 -42 20 -122 14 -91 -7 -89 -9 -54 88 39
108 41 110 86 103 32 -5 40 -3 40 9 0 8 -13 20 -30 26 -16 5 -30 14 -30 18 0
12 58 149 79 186 13 23 32 36 81 53 36 12 81 25 101 29 l36 7 6 -119 c9 -172
42 -344 87 -456 63 -155 152 -279 273 -382 101 -86 97 -94 97 180 0 245 3 277
61 570 21 106 55 221 72 243 13 17 275 6 294 -12z m430 -92 c25 -45 98 -209
107 -240 6 -20 2 -22 -76 -28 -46 -4 -92 -10 -103 -12 -20 -5 -20 -1 -17 143
3 135 5 150 24 166 28 23 39 18 65 -29z m-167 -114 c0 -60 -3 -110 -8 -110
-15 0 -115 171 -106 180 11 11 82 38 102 39 9 1 12 -27 12 -109z m-1621 -90
c24 -11 49 -20 56 -20 34 0 33 -26 -4 -125 l-38 -100 -51 -3 -52 -3 0 129 c0
71 3 132 7 135 11 12 36 7 82 -13z m-139 -144 l0 -114 -51 -11 c-28 -6 -54 -9
-59 -6 -4 3 0 26 10 52 21 57 89 193 95 193 3 0 5 -51 5 -114z m2057 39 c3 -9
4 -17 2 -19 -2 -2 -49 -9 -104 -15 -55 -6 -110 -14 -122 -17 -17 -5 -23 -2
-23 10 0 21 5 22 120 40 124 18 120 18 127 1z m-1918 -216 c-14 -27 -79 -27
-79 0 0 15 8 21 33 23 48 5 59 0 46 -23z m-139 -8 c12 -24 7 -27 -55 -41 -26
-6 -62 -20 -78 -32 l-30 -22 6 39 c8 47 16 56 64 65 64 13 82 11 93 -9z m3120
-81 c45 -32 61 -87 62 -219 0 -121 -18 -200 -61 -272 -46 -76 -217 -229 -240
-214 -5 3 3 40 19 83 63 174 123 425 136 575 5 63 7 67 31 67 14 0 37 -9 53
-20z m-1013 -391 c38 -23 39 -32 17 -85 -76 -182 -226 -213 -381 -79 -52 44
-56 76 -16 113 92 85 284 110 380 51z m-1532 -123 c31 -13 35 -19 35 -50 0
-59 -37 -143 -76 -173 -75 -56 -181 -60 -262 -9 -50 31 -92 82 -92 110 0 41
99 110 180 127 63 12 179 10 215 -5z m1725 -607 c0 -99 -11 -109 -30 -27 -7
29 -17 61 -21 70 -7 12 -3 21 13 32 12 9 26 16 30 16 5 0 8 -41 8 -91z m-2529
-105 c10 -12 10 -17 0 -23 -7 -4 -22 -45 -35 -91 -28 -103 -41 -83 -21 32 8
46 15 86 15 91 0 13 27 7 41 -9z m2639 -230 c92 -78 196 -294 215 -447 9 -71
-3 -78 -71 -41 -62 33 -209 84 -245 84 -16 0 -44 14 -70 35 -23 20 -50 40 -60
46 -20 10 -25 48 -10 64 28 31 71 128 71 162 0 34 6 43 53 80 28 24 60 43 69
43 9 0 31 -12 48 -26z m-2 -490 c37 -15 130 -57 207 -94 144 -69 245 -143 245
-180 0 -9 -14 -48 -31 -86 -17 -38 -40 -89 -51 -114 -16 -35 -19 -58 -16 -112
3 -37 4 -68 3 -68 -1 0 -22 18 -46 41 -44 41 -288 210 -321 222 -14 5 -18 18
-18 56 0 45 -5 56 -47 108 -25 32 -52 62 -60 66 -33 20 -34 45 -3 80 32 37 53
83 44 98 -10 16 26 10 94 -17z m-963 -529 c84 -25 87 -30 75 -95 -14 -70 -36
-283 -46 -427 -4 -69 -11 -113 -17 -113 -19 0 -146 80 -156 99 -7 12 -5 32 7
64 16 44 16 48 -2 82 -19 34 -19 36 -1 75 16 36 17 46 5 97 -12 48 -12 57 0
61 24 8 60 54 60 76 0 12 -4 38 -9 58 -9 38 -5 51 13 45 6 -2 38 -12 71 -22z
m635 -27 c125 -40 354 -145 426 -197 31 -23 61 -41 66 -41 4 0 27 -15 51 -33
24 -18 58 -39 76 -46 l32 -14 -7 -71 c-15 -171 -61 -384 -96 -451 -39 -73 -75
-87 -327 -130 -120 -21 -539 -39 -562 -25 -9 6 7 595 17 612 3 4 14 4 24 -2
51 -27 135 -3 248 73 66 45 97 90 87 130 -9 35 -137 190 -169 205 -37 16 -72
15 -101 -4 -26 -17 -45 -12 -45 11 0 9 15 15 43 18 69 7 136 -3 237 -35z
m-108 -109 c79 -90 86 -104 65 -127 -21 -23 -153 -99 -188 -107 -22 -5 -33 2
-78 51 -65 71 -97 130 -81 149 7 8 22 17 33 21 12 3 45 16 72 29 90 40 100 44
112 44 6 1 35 -26 65 -60z m-2607 -79 l0 -65 38 -18 c43 -21 44 -29 17 -92
-29 -68 -26 -99 12 -128 l31 -25 -22 -37 c-24 -42 -27 -68 -16 -135 7 -45 6
-47 -43 -98 -55 -57 -88 -69 -78 -28 4 16 -5 51 -23 98 -45 112 -72 256 -76
393 -4 132 -8 121 75 176 25 16 54 28 65 27 17 -3 19 -11 20 -68z m-276 -553
c1 -5 -3 -5 -9 -2 -5 3 -10 16 -9 28 0 21 1 21 9 2 5 -11 9 -24 9 -28z m3076
-497 c22 -5 74 -9 115 -10 76 0 167 -20 154 -33 -4 -4 -14 -7 -22 -7 -8 0 -28
-6 -45 -14 -18 -8 -67 -26 -109 -40 l-78 -26 -92 19 c-51 10 -117 22 -145 26
-42 5 -53 11 -53 25 0 28 24 41 107 60 77 18 89 18 168 0z m-212 -156 c39 -12
40 -13 12 -13 -16 -1 -46 -4 -66 -7 -28 -5 -37 -2 -43 11 -14 38 2 39 97 9z"/>
<path d="M4056 3184 c-4 -20 -5 -38 -2 -41 2 -3 8 11 12 31 3 21 4 39 1 42 -2
3 -8 -11 -11 -32z"/>
<path d="M1860 3084 c0 -8 5 -12 10 -9 6 3 10 10 10 16 0 5 -4 9 -10 9 -5 0
-10 -7 -10 -16z"/>
<path d="M2131 3084 c0 -11 3 -14 6 -6 3 7 2 16 -1 19 -3 4 -6 -2 -5 -13z"/>
<path d="M2010 3079 c0 -5 5 -7 10 -4 6 3 10 8 10 11 0 2 -4 4 -10 4 -5 0 -10
-5 -10 -11z"/>
<path d="M1850 3029 c0 -5 5 -7 10 -4 6 3 10 8 10 11 0 2 -4 4 -10 4 -5 0 -10
-5 -10 -11z"/>
<path d="M1995 3031 c-3 -5 -1 -12 5 -16 5 -3 10 1 10 9 0 18 -6 21 -15 7z"/>
<path d="M2978 2395 c-7 -7 12 -73 41 -139 l22 -49 -24 -26 c-34 -36 -51 -90
-43 -134 10 -54 59 -91 149 -112 73 -18 75 -18 148 4 105 32 145 57 169 106
25 52 25 76 0 124 -20 40 -48 58 -147 92 -69 23 -110 24 -163 3 -23 -9 -44
-14 -47 -10 -4 3 -23 36 -43 73 -34 64 -49 80 -62 68z m386 -210 c16 -12 17
-15 4 -15 -8 0 -21 7 -28 15 -16 19 -1 19 24 0z m-319 -61 c-8 -20 -15 -48
-15 -63 -1 -23 -2 -24 -11 -8 -11 19 -5 49 19 85 21 33 24 27 7 -14z m201 -29
c-16 -34 -39 -45 -50 -26 -10 16 5 41 33 55 34 19 37 14 17 -29z m84 -15 c0
-23 -4 -30 -20 -30 -24 0 -26 17 -3 42 21 24 23 23 23 -12z m-110 -73 c26 -12
30 -16 14 -16 -25 -1 -86 38 -92 59 -3 10 3 8 19 -7 13 -12 40 -28 59 -36z"/>
<path d="M1706 2143 c-3 -4 -4 -39 0 -78 6 -69 6 -72 -20 -88 -14 -10 -38 -35
-52 -57 -22 -32 -26 -48 -21 -81 9 -71 49 -99 167 -118 175 -29 310 39 310
156 0 56 -23 105 -73 158 -37 38 -49 45 -83 45 -21 0 -63 -9 -92 -20 -62 -24
-82 -25 -82 -5 0 21 -31 95 -39 95 -4 0 -11 -3 -15 -7z m-6 -244 c-6 -23 -9
-58 -5 -78 7 -36 7 -36 -14 -17 -27 24 -27 71 0 115 26 43 33 35 19 -20z m257
15 c-9 -9 -28 6 -21 18 4 6 10 6 17 -1 6 -6 8 -13 4 -17z m-17 -71 c0 -2 -17
-3 -37 -1 -41 3 -55 27 -33 53 10 13 17 10 41 -16 16 -17 29 -33 29 -36z
m-132 -18 c4 -5 19 -18 33 -27 l24 -17 -23 0 c-34 -1 -62 16 -73 45 -12 34 0
53 17 28 7 -10 17 -23 22 -29z"/>
<path d="M2590 1534 c-97 -18 -171 -38 -181 -50 -31 -38 37 -229 109 -306 73
-78 108 -64 175 67 90 177 105 249 57 275 -21 11 -123 20 -160 14z m128 -82
c4 -27 -105 -252 -126 -260 -8 -3 -23 6 -34 19 -29 36 -96 180 -100 214 l-3
30 75 11 c41 7 100 11 130 10 49 -1 55 -3 58 -24z"/>
<path d="M2834 818 c-4 -6 -9 -69 -11 -139 -4 -150 8 -199 51 -199 14 0 28 5
32 11 4 7 6 75 5 153 -2 104 -6 147 -17 164 -15 24 -48 29 -60 10z"/>
<path d="M2656 784 c-18 -17 -19 -26 -16 -106 1 -31 -1 -62 -5 -68 -9 -15
-118 64 -170 123 -32 37 -48 48 -66 45 l-24 -3 3 -135 c3 -145 12 -185 43
-193 36 -10 51 20 44 84 -4 32 -4 63 -1 68 4 6 32 -8 66 -34 98 -71 151 -79
180 -25 5 10 10 68 10 129 0 99 -2 111 -19 121 -25 13 -27 13 -45 -6z"/>
<path d="M2035 754 c-18 -18 -17 -64 6 -184 28 -146 138 -199 228 -109 38 37
51 83 51 179 0 82 -16 120 -50 120 -30 0 -39 -30 -37 -121 1 -91 -9 -123 -45
-135 -35 -11 -54 24 -67 123 -17 128 -44 168 -86 127z"/>
<path d="M1520 489 c0 -5 5 -7 10 -4 6 3 10 8 10 11 0 2 -4 4 -10 4 -5 0 -10
-5 -10 -11z"/>
<path d="M3065 227 c-7 -85 -2 -150 15 -177 5 -8 7 41 4 120 -3 74 -6 136 -8
138 -2 2 -7 -35 -11 -81z"/>
<path d="M3590 272 c0 -14 39 -46 47 -39 3 4 -2 16 -12 27 -19 21 -35 26 -35
12z"/>
<path d="M3490 231 c0 -20 50 -65 61 -54 7 7 -1 19 -26 37 -19 15 -35 23 -35
17z"/>
<path d="M3302 216 c1 -10 8 -17 13 -17 15 1 12 24 -3 29 -9 3 -13 -2 -10 -12z"/>
<path d="M3150 161 c0 -11 4 -22 9 -25 11 -7 23 22 15 35 -9 16 -24 10 -24
-10z"/>
<path d="M3317 165 c-4 -8 -2 -17 3 -20 6 -4 10 3 10 14 0 25 -6 27 -13 6z"/>
<path d="M3325 113 c3 -10 11 -39 16 -65 10 -44 29 -67 29 -34 0 40 -25 116
-38 116 -9 0 -12 -6 -7 -17z"/>
<path d="M3160 68 c0 -18 5 -40 10 -48 7 -11 10 -2 10 33 0 26 -4 47 -10 47
-5 0 -10 -15 -10 -32z"/>
</g>
</svg>
